<mxfile host="65bd71144e">
    <diagram id="TM9e9SKZcFMomq-Y8wc9" name="Page-1">
        <mxGraphModel dx="487" dy="473" grid="1" gridSize="10" guides="1" tooltips="1" connect="1" arrows="1" fold="1" page="1" pageScale="1" pageWidth="827" pageHeight="1169" math="0" shadow="0">
            <root>
                <mxCell id="0"/>
                <mxCell id="1" parent="0"/>
                <mxCell id="2" value="User" style="swimlane;fontStyle=0;childLayout=stackLayout;horizontal=1;startSize=26;fillColor=none;horizontalStack=0;resizeParent=1;resizeParentMax=0;resizeLast=0;collapsible=1;marginBottom=0;" parent="1" vertex="1">
                    <mxGeometry x="115" y="342.69" width="150" height="182" as="geometry"/>
                </mxCell>
                <mxCell id="3" value="+ _id*: ObjectId" style="text;strokeColor=none;fillColor=none;align=left;verticalAlign=top;spacingLeft=4;spacingRight=4;overflow=hidden;rotatable=0;points=[[0,0.5],[1,0.5]];portConstraint=eastwest;" parent="2" vertex="1">
                    <mxGeometry y="26" width="150" height="26" as="geometry"/>
                </mxCell>
                <mxCell id="4" value="+ name: String" style="text;strokeColor=none;fillColor=none;align=left;verticalAlign=top;spacingLeft=4;spacingRight=4;overflow=hidden;rotatable=0;points=[[0,0.5],[1,0.5]];portConstraint=eastwest;" parent="2" vertex="1">
                    <mxGeometry y="52" width="150" height="26" as="geometry"/>
                </mxCell>
                <mxCell id="5" value="+ email*: String" style="text;strokeColor=none;fillColor=none;align=left;verticalAlign=top;spacingLeft=4;spacingRight=4;overflow=hidden;rotatable=0;points=[[0,0.5],[1,0.5]];portConstraint=eastwest;" parent="2" vertex="1">
                    <mxGeometry y="78" width="150" height="26" as="geometry"/>
                </mxCell>
                <mxCell id="7" value="+ password_hash*: String" style="text;strokeColor=none;fillColor=none;align=left;verticalAlign=top;spacingLeft=4;spacingRight=4;overflow=hidden;rotatable=0;points=[[0,0.5],[1,0.5]];portConstraint=eastwest;" parent="2" vertex="1">
                    <mxGeometry y="104" width="150" height="26" as="geometry"/>
                </mxCell>
                <mxCell id="8" value="+ is_admin*: Boolean" style="text;strokeColor=none;fillColor=none;align=left;verticalAlign=top;spacingLeft=4;spacingRight=4;overflow=hidden;rotatable=0;points=[[0,0.5],[1,0.5]];portConstraint=eastwest;" parent="2" vertex="1">
                    <mxGeometry y="130" width="150" height="26" as="geometry"/>
                </mxCell>
                <mxCell id="49" value="+ created_at: Date" style="text;strokeColor=none;fillColor=none;align=left;verticalAlign=top;spacingLeft=4;spacingRight=4;overflow=hidden;rotatable=0;points=[[0,0.5],[1,0.5]];portConstraint=eastwest;" parent="2" vertex="1">
                    <mxGeometry y="156" width="150" height="26" as="geometry"/>
                </mxCell>
                <mxCell id="9" value="Assessment" style="swimlane;fontStyle=0;childLayout=stackLayout;horizontal=1;startSize=26;fillColor=none;horizontalStack=0;resizeParent=1;resizeParentMax=0;resizeLast=0;collapsible=1;marginBottom=0;" parent="1" vertex="1">
                    <mxGeometry x="365" y="342.69" width="120" height="208" as="geometry"/>
                </mxCell>
                <mxCell id="10" value="+ _id*: ObjectId&#10;    " style="text;strokeColor=none;fillColor=none;align=left;verticalAlign=top;spacingLeft=4;spacingRight=4;overflow=hidden;rotatable=0;points=[[0,0.5],[1,0.5]];portConstraint=eastwest;" parent="9" vertex="1">
                    <mxGeometry y="26" width="120" height="26" as="geometry"/>
                </mxCell>
                <mxCell id="16" value="+ user*: ObjectId" style="text;strokeColor=none;fillColor=none;align=left;verticalAlign=top;spacingLeft=4;spacingRight=4;overflow=hidden;rotatable=0;points=[[0,0.5],[1,0.5]];portConstraint=eastwest;" parent="9" vertex="1">
                    <mxGeometry y="52" width="120" height="26" as="geometry"/>
                </mxCell>
                <mxCell id="11" value="+ name*: String" style="text;strokeColor=none;fillColor=none;align=left;verticalAlign=top;spacingLeft=4;spacingRight=4;overflow=hidden;rotatable=0;points=[[0,0.5],[1,0.5]];portConstraint=eastwest;" parent="9" vertex="1">
                    <mxGeometry y="78" width="120" height="26" as="geometry"/>
                </mxCell>
                <mxCell id="12" value="+ object*: String" style="text;strokeColor=none;fillColor=none;align=left;verticalAlign=top;spacingLeft=4;spacingRight=4;overflow=hidden;rotatable=0;points=[[0,0.5],[1,0.5]];portConstraint=eastwest;" parent="9" vertex="1">
                    <mxGeometry y="104" width="120" height="26" as="geometry"/>
                </mxCell>
                <mxCell id="13" value="+ description: String" style="text;strokeColor=none;fillColor=none;align=left;verticalAlign=top;spacingLeft=4;spacingRight=4;overflow=hidden;rotatable=0;points=[[0,0.5],[1,0.5]];portConstraint=eastwest;" parent="9" vertex="1">
                    <mxGeometry y="130" width="120" height="26" as="geometry"/>
                </mxCell>
                <mxCell id="14" value="+ created_at*: Date" style="text;strokeColor=none;fillColor=none;align=left;verticalAlign=top;spacingLeft=4;spacingRight=4;overflow=hidden;rotatable=0;points=[[0,0.5],[1,0.5]];portConstraint=eastwest;" parent="9" vertex="1">
                    <mxGeometry y="156" width="120" height="26" as="geometry"/>
                </mxCell>
                <mxCell id="17" value="+ finished_at: Date" style="text;strokeColor=none;fillColor=none;align=left;verticalAlign=top;spacingLeft=4;spacingRight=4;overflow=hidden;rotatable=0;points=[[0,0.5],[1,0.5]];portConstraint=eastwest;" parent="9" vertex="1">
                    <mxGeometry y="182" width="120" height="26" as="geometry"/>
                </mxCell>
                <mxCell id="21" value="n" style="endArrow=open;html=1;endSize=12;startArrow=diamondThin;startSize=14;startFill=1;edgeStyle=orthogonalEdgeStyle;align=left;verticalAlign=bottom;exitX=0;exitY=0.5;exitDx=0;exitDy=0;entryX=1;entryY=0.5;entryDx=0;entryDy=0;" parent="1" source="11" target="5" edge="1">
                    <mxGeometry x="-0.5556" relative="1" as="geometry">
                        <mxPoint x="355" y="662.69" as="sourcePoint"/>
                        <mxPoint x="195" y="662.69" as="targetPoint"/>
                        <mxPoint as="offset"/>
                    </mxGeometry>
                </mxCell>
                <mxCell id="27" value="Question" style="swimlane;fontStyle=0;childLayout=stackLayout;horizontal=1;startSize=26;fillColor=none;horizontalStack=0;resizeParent=1;resizeParentMax=0;resizeLast=0;collapsible=1;marginBottom=0;" parent="1" vertex="1">
                    <mxGeometry x="334.15" y="670.1500000000001" width="154" height="156" as="geometry">
                        <mxRectangle x="520" y="40" width="80" height="26" as="alternateBounds"/>
                    </mxGeometry>
                </mxCell>
                <mxCell id="28" value="+ _id*: ObjectId" style="text;strokeColor=none;fillColor=none;align=left;verticalAlign=top;spacingLeft=4;spacingRight=4;overflow=hidden;rotatable=0;points=[[0,0.5],[1,0.5]];portConstraint=eastwest;" parent="27" vertex="1">
                    <mxGeometry y="26" width="154" height="26" as="geometry"/>
                </mxCell>
                <mxCell id="29" value="+ criterion*: ObjectId" style="text;strokeColor=none;fillColor=none;align=left;verticalAlign=top;spacingLeft=4;spacingRight=4;overflow=hidden;rotatable=0;points=[[0,0.5],[1,0.5]];portConstraint=eastwest;" parent="27" vertex="1">
                    <mxGeometry y="52" width="154" height="26" as="geometry"/>
                </mxCell>
                <mxCell id="30" value="+ order*: Number&#10;" style="text;strokeColor=none;fillColor=none;align=left;verticalAlign=top;spacingLeft=4;spacingRight=4;overflow=hidden;rotatable=0;points=[[0,0.5],[1,0.5]];portConstraint=eastwest;" parent="27" vertex="1">
                    <mxGeometry y="78" width="154" height="26" as="geometry"/>
                </mxCell>
                <mxCell id="56" value="+ enunciation*: String" style="text;strokeColor=none;fillColor=none;align=left;verticalAlign=top;spacingLeft=4;spacingRight=4;overflow=hidden;rotatable=0;points=[[0,0.5],[1,0.5]];portConstraint=eastwest;" parent="27" vertex="1">
                    <mxGeometry y="104" width="154" height="26" as="geometry"/>
                </mxCell>
                <mxCell id="59" value="+ glossary_refs: [ObjectId]" style="text;strokeColor=none;fillColor=none;align=left;verticalAlign=top;spacingLeft=4;spacingRight=4;overflow=hidden;rotatable=0;points=[[0,0.5],[1,0.5]];portConstraint=eastwest;" parent="27" vertex="1">
                    <mxGeometry y="130" width="154" height="26" as="geometry"/>
                </mxCell>
                <mxCell id="31" value="Criterion" style="swimlane;fontStyle=0;childLayout=stackLayout;horizontal=1;startSize=26;fillColor=none;horizontalStack=0;resizeParent=1;resizeParentMax=0;resizeLast=0;collapsible=1;marginBottom=0;" parent="1" vertex="1">
                    <mxGeometry x="571.15" y="670.1500000000001" width="140" height="130" as="geometry"/>
                </mxCell>
                <mxCell id="32" value="+ _id: ObjecId" style="text;strokeColor=none;fillColor=none;align=left;verticalAlign=top;spacingLeft=4;spacingRight=4;overflow=hidden;rotatable=0;points=[[0,0.5],[1,0.5]];portConstraint=eastwest;" parent="31" vertex="1">
                    <mxGeometry y="26" width="140" height="26" as="geometry"/>
                </mxCell>
                <mxCell id="33" value="+ order*: Number" style="text;strokeColor=none;fillColor=none;align=left;verticalAlign=top;spacingLeft=4;spacingRight=4;overflow=hidden;rotatable=0;points=[[0,0.5],[1,0.5]];portConstraint=eastwest;" parent="31" vertex="1">
                    <mxGeometry y="52" width="140" height="26" as="geometry"/>
                </mxCell>
                <mxCell id="34" value="+ name*: String" style="text;strokeColor=none;fillColor=none;align=left;verticalAlign=top;spacingLeft=4;spacingRight=4;overflow=hidden;rotatable=0;points=[[0,0.5],[1,0.5]];portConstraint=eastwest;" parent="31" vertex="1">
                    <mxGeometry y="78" width="140" height="26" as="geometry"/>
                </mxCell>
                <mxCell id="60" value="+ description*: String" style="text;strokeColor=none;fillColor=none;align=left;verticalAlign=top;spacingLeft=4;spacingRight=4;overflow=hidden;rotatable=0;points=[[0,0.5],[1,0.5]];portConstraint=eastwest;" parent="31" vertex="1">
                    <mxGeometry y="104" width="140" height="26" as="geometry"/>
                </mxCell>
                <mxCell id="37" value="n" style="endArrow=open;html=1;endSize=12;startArrow=diamondThin;startSize=14;startFill=1;edgeStyle=orthogonalEdgeStyle;align=left;verticalAlign=bottom;exitX=1;exitY=0.5;exitDx=0;exitDy=0;entryX=0;entryY=0.5;entryDx=0;entryDy=0;" parent="1" source="29" target="33" edge="1">
                    <mxGeometry x="-0.75" y="5" relative="1" as="geometry">
                        <mxPoint x="198.15" y="1000.1500000000001" as="sourcePoint"/>
                        <mxPoint x="358.15" y="1000.1500000000001" as="targetPoint"/>
                        <mxPoint as="offset"/>
                    </mxGeometry>
                </mxCell>
                <mxCell id="38" value="Glossary" style="swimlane;fontStyle=0;childLayout=stackLayout;horizontal=1;startSize=26;fillColor=none;horizontalStack=0;resizeParent=1;resizeParentMax=0;resizeLast=0;collapsible=1;marginBottom=0;" parent="1" vertex="1">
                    <mxGeometry x="341.15" y="895.1500000000001" width="140" height="104" as="geometry"/>
                </mxCell>
                <mxCell id="39" value="+ _id: ObjectId" style="text;strokeColor=none;fillColor=none;align=left;verticalAlign=top;spacingLeft=4;spacingRight=4;overflow=hidden;rotatable=0;points=[[0,0.5],[1,0.5]];portConstraint=eastwest;" parent="38" vertex="1">
                    <mxGeometry y="26" width="140" height="26" as="geometry"/>
                </mxCell>
                <mxCell id="41" value="+ entry*: String" style="text;strokeColor=none;fillColor=none;align=left;verticalAlign=top;spacingLeft=4;spacingRight=4;overflow=hidden;rotatable=0;points=[[0,0.5],[1,0.5]];portConstraint=eastwest;" parent="38" vertex="1">
                    <mxGeometry y="52" width="140" height="26" as="geometry"/>
                </mxCell>
                <mxCell id="40" value="+ description: String" style="text;strokeColor=none;fillColor=none;align=left;verticalAlign=top;spacingLeft=4;spacingRight=4;overflow=hidden;rotatable=0;points=[[0,0.5],[1,0.5]];portConstraint=eastwest;" parent="38" vertex="1">
                    <mxGeometry y="78" width="140" height="26" as="geometry"/>
                </mxCell>
                <mxCell id="42" value="n" style="endArrow=open;html=1;endSize=12;startArrow=diamondThin;startSize=14;startFill=0;edgeStyle=orthogonalEdgeStyle;align=left;verticalAlign=bottom;exitX=0.5;exitY=0;exitDx=0;exitDy=0;entryX=0.5;entryY=1;entryDx=0;entryDy=0;" parent="1" source="38" target="27" edge="1">
                    <mxGeometry x="-0.8817" y="-10" relative="1" as="geometry">
                        <mxPoint x="438.15" y="880.1500000000001" as="sourcePoint"/>
                        <mxPoint x="405.15" y="820.1500000000001" as="targetPoint"/>
                        <mxPoint as="offset"/>
                    </mxGeometry>
                </mxCell>
                <mxCell id="43" value="Answer" style="swimlane;fontStyle=0;childLayout=stackLayout;horizontal=1;startSize=26;fillColor=none;horizontalStack=0;resizeParent=1;resizeParentMax=0;resizeLast=0;collapsible=1;marginBottom=0;" parent="1" vertex="1">
                    <mxGeometry x="558" y="342.69" width="140" height="182" as="geometry"/>
                </mxCell>
                <mxCell id="44" value="+ _id*: ObjectId" style="text;strokeColor=none;fillColor=none;align=left;verticalAlign=top;spacingLeft=4;spacingRight=4;overflow=hidden;rotatable=0;points=[[0,0.5],[1,0.5]];portConstraint=eastwest;" parent="43" vertex="1">
                    <mxGeometry y="26" width="140" height="26" as="geometry"/>
                </mxCell>
                <mxCell id="45" value="+ assessment*: ObjectId" style="text;strokeColor=none;fillColor=none;align=left;verticalAlign=top;spacingLeft=4;spacingRight=4;overflow=hidden;rotatable=0;points=[[0,0.5],[1,0.5]];portConstraint=eastwest;" parent="43" vertex="1">
                    <mxGeometry y="52" width="140" height="26" as="geometry"/>
                </mxCell>
                <mxCell id="46" value="+ question*: ObjectId&#10;" style="text;strokeColor=none;fillColor=none;align=left;verticalAlign=top;spacingLeft=4;spacingRight=4;overflow=hidden;rotatable=0;points=[[0,0.5],[1,0.5]];portConstraint=eastwest;" parent="43" vertex="1">
                    <mxGeometry y="78" width="140" height="26" as="geometry"/>
                </mxCell>
                <mxCell id="50" value="+ answer*: String&#10;" style="text;strokeColor=none;fillColor=none;align=left;verticalAlign=top;spacingLeft=4;spacingRight=4;overflow=hidden;rotatable=0;points=[[0,0.5],[1,0.5]];portConstraint=eastwest;" parent="43" vertex="1">
                    <mxGeometry y="104" width="140" height="26" as="geometry"/>
                </mxCell>
                <mxCell id="51" value="+ comment: String&#10;" style="text;strokeColor=none;fillColor=none;align=left;verticalAlign=top;spacingLeft=4;spacingRight=4;overflow=hidden;rotatable=0;points=[[0,0.5],[1,0.5]];portConstraint=eastwest;" parent="43" vertex="1">
                    <mxGeometry y="130" width="140" height="26" as="geometry"/>
                </mxCell>
                <mxCell id="55" value="+ ansewered_at*: Date&#10;&#10;" style="text;strokeColor=none;fillColor=none;align=left;verticalAlign=top;spacingLeft=4;spacingRight=4;overflow=hidden;rotatable=0;points=[[0,0.5],[1,0.5]];portConstraint=eastwest;" parent="43" vertex="1">
                    <mxGeometry y="156" width="140" height="26" as="geometry"/>
                </mxCell>
                <mxCell id="52" value="n" style="endArrow=open;html=1;endSize=12;startArrow=diamondThin;startSize=14;startFill=1;edgeStyle=orthogonalEdgeStyle;align=left;verticalAlign=bottom;entryX=1;entryY=0.5;entryDx=0;entryDy=0;exitX=0;exitY=0.5;exitDx=0;exitDy=0;" parent="1" source="46" target="11" edge="1">
                    <mxGeometry x="-0.4521" relative="1" as="geometry">
                        <mxPoint x="438" y="522.69" as="sourcePoint"/>
                        <mxPoint x="598" y="522.69" as="targetPoint"/>
                        <mxPoint as="offset"/>
                    </mxGeometry>
                </mxCell>
                <mxCell id="58" value="n" style="endArrow=open;html=1;endSize=12;startArrow=diamondThin;startSize=14;startFill=0;edgeStyle=orthogonalEdgeStyle;align=left;verticalAlign=bottom;exitX=0.479;exitY=1;exitDx=0;exitDy=0;exitPerimeter=0;entryX=0.5;entryY=0;entryDx=0;entryDy=0;" parent="1" source="55" target="27" edge="1">
                    <mxGeometry x="-0.9363" y="-17" relative="1" as="geometry">
                        <mxPoint x="448" y="582.69" as="sourcePoint"/>
                        <mxPoint x="608" y="582.69" as="targetPoint"/>
                        <mxPoint as="offset"/>
                    </mxGeometry>
                </mxCell>
                <mxCell id="62" value="" style="shape=stencil(lVvJch03DPwaXVncl7Pj/IerLEeqKJZLVra/DxgV5z02ZpozNy3oWUgCaDQwD+HTz6cvPx4fvP35/vb6++Pfz1/fnx7CLw/eP39/enx7fpefHsLnh/Dp2+vb429vr39+//rx+48v3bL/9MfrX/0K/3zgvDe2dpS3/378JRvf/v/Drx/2L8/f7+2dsRbskz22d83E+frFpETs5d9hsq+mOmKfTfGTfTO+Evtk3Pw8zhrvCSDgDZwzkb2xNz7PAG8SeyRr6rykcs8ajwFtXG6zT8aSPasmw/WzceSViyluti90ibJpcP1qArV3ZbaXQ0Lsk0nzDnhrIlmfaOp8fTm0MTP7MK+nOEUkZy6YBvbB+MLsEzxPpD4WcH1kBQJ5Hm/KfOBkhQNZH29Cmu3F6cjzONPAvpoWmH2e9ytYur9unK7N3tHzL/7SZntZfxJTrMnz84doCrWP8/kPmZ5nCSBxtpfzT86bNW7er2jHjh/YQ4iOsj70eSBEx7B4frSPNOZqe8kZ5Dxo+zKSwkn7ago9D2CfZAf5eoK9X+wX2sdr65l4TtX2cn6urGe2I4KdtPfUH7V9vLaeOY2Id9I+m3jpfYsJl65fKeewYzc3imIX56HN8bn4kcEP4luZn6ekETEO4jPku1JMpvklzvGwSjwh/hvHamz23mSy/snkOf7UODLgOT5Qi7Hk+nWwkc2+0vzeMD/WRuNPZ3gzp2xyRFhCcoND3gEKAyjO19xIskesEh+Jx3S3UYYN4KkTCCcMc1ZqYfjFEZO2BQGUqmfkrS3SfRYamR0CaPEgfgsAYbrskVS1IYBM7tC5wXz2Gs9l3ZkTAgq7g0e20grN9uKeziEgkXAk/hkVoDFAxoDUKiWwwg+bRwCL2OKiNiOA1UDCEG1AQCbvIBTROgQwkiAAYO0rgLhLvAho6h0oIA6XPwtIWJmtANnkdglQxr/PAqoKApUGstBMTQhoxIGEHDf1Diz9RG8c7MN2HPcBATUBAThWYEZk/ALwLOOm8e97AKGEwqidRQAL9wJAF10AyuD4ZwHiweqlKaCNGHES0Gl7uwRQzGoFCEgNVwClDawAaZSud4BIUlYSLqteOjE2VlWYaSOv7tMxO9SDewA5fNmpPN2GxLAP8CpqNFrB52CqWtZGooZUFOAPzlpKZ3pNcRGhpMclog5efhrR0OtWiOIGVT2N8BidloiAp3yJiOjbS0TCKmuJyCZc20Gpk/y1/Sh1KEenEYranEDUa08l9Vu+th/VIQdcIvxIcRcQyD6409agyigeFgRQCgJYpJJCFLZvETwFkDMCWCKuaYfJMvYhgFgQwJisADAWcjZe81An7vh+ZY+U1bIWKnBLvY7lbKaKb9W0MVNJSip8zEmyDOwOmmcm2uipTRXMcejARwDkyrycbVZxtEA7QwJIAPBjZ44ANSCAEdPmjAN/cKOEPgJAluz3JMsqgBwRwMT3rmuAetRowSyvCFxZAI7dwQ+CdacfJRKXBAA7Lee3kiAggBYR4IlPN1VRdB9k+xAwnwrA8TsA9ZA4wligAOAsLVQ8AUDdVSMt+sVdoK8h8ZzpEC0iJRAAi0tdLoI7eFP5HaB5KwAm7wgA1BrJrExAuglSd+IrK2d72NJqLTt8CY+3EAoaZhJqWsJyMvOHZAr06ItpbB8S+oMAWEe5qXJWyB11oIxMrvNHtkoZHUgoKmMCAgBtUVgwy9MdMG/cQvYXALiocHl6WjNqi8XyfdgDMH1UA6QgWewDAirtBe0ACs9xewCm1uwAMuVLOwDenxIAhMocVxsH4osAaMoqqkUVeMujqDEdT3U5AUARKADWFGoFpfPsaJdWAAVWyVKS2FXpggBGEjsPnl00NUoSuyqdEcBIYhc3Veu18DtA5BOAY3doI7hvgEKHObq+NJ/WRfe4VzywSoknlIbVZYp0fuim/mwAz/ehoQiWHPe4hg6ULG2R3tWqAxF5mbWHKLTNvofYemSnEZEyyz1EoExxD+Ep89tD8KpgD2EpM9tBhEYTxR6Ct333EIUPFu0gMh/e20EkHqTU0Q2RTg9ob1qML3UHh3knz7OLCiFhG1k4AkD3zbcx83UybvaOH4tqVc3YVepKOln4MvpxRwCY8vIb6TwCQPWxGLPTWd5HXnIpTnobHTwCgNa7mCwUIg49mT48wgsiqG/8gpOqVlcf12OxP2A66j12Xu9XEFTbqhqH/p5bkFiHZaOrvBrfaPcdgKWjroHAHTjr1WKTAAITXxsOybhM68yugWQEsKBfC9b7izFhAYCc5Tivrhk7V31wmd0hj4SwASKtAmsagsMG4KPUWq0VAIveN9FkA3AiXqNaJU/pmQBgssFtmtuRao6r5Ea1cCTkq4YEDWQCCNhdoDpkF01AQKYTxlVPc9Bgf5NMNhGFnrzScMS40oNXKpZbhZKZknFFM+2MFDWyk+n8QAmqTqHjNF1omD0t0nyu25KRUhIp0SFmB6owScENATXQ7C/lM8zeeHp+em0L9ILWfb3whDRIQ13Sn1DQFJX0JxG093Cr2G72kV1ffVLg6MS/1GtA8BytWvUkhqP+EhWBtJRVRKUdWJqQo9LeLJ1YjQn9xdJRRqnSgG3yCfKopG5L81JU8r6lVPNW0d3sGf+Iqsliafcgqj6RpRkjbh9w3NkT8hGafn5qr7p7S3uL+0XtVUNzYa+Ix8I+jeN40j5iv3RhH3BobmHv8ZMdvr96OJKfHz19yc9zsDjTyv1R0n/A52HxpH/iBmMcNL719I/xmcVbX3T8ZAW1pHOYGuBfmPikqiwqsHk1fhPoF3r9E4EK9nSkWH0VyhVCPRUdqcyy/upUfrh9svrt+eXl44vX+//jJ67yp4/PY8Pn/wA=);fillColor=none;" parent="1" vertex="1">
                    <mxGeometry x="78" y="299.99769230769226" width="236.9230769230769" height="244.6153846153846" as="geometry"/>
                </mxCell>
                <mxCell id="64" value="" style="shape=stencil(lVvJcls3EPwaXacw2HF2nP9wleVYFUVyyc729xlExiPRIBvkTaJ6ICyzdA/Ah/Dh+9dP3x4fvPv+4+3198e/nz7/+PoQfnnw/unl6+Pb0w/76SF8fAgfvry+Pf729vrny+f337996sj+0x+vf/UR/nm3Uye1dCvv/v35iWT//we/vuOfn15mfGh34Ju0APASGDzVCe4l0NFjAXgpDK5pggfJ6Tq8Sp0nE6U6Bs86wbMEOnqYRy/SyNyreDfBbasagzs/77tKIrMpUuOMDxKU4WGxmkQjw0fwgyyZzL+In49KbUV0fIX5NHFkvRn90jvxZPtttnnGc7/PuF5zzUzmn0VhfO6baZl/lEQCK0mZ98c+ieR80zL/LJ6sN4mH8Ys4Mp8orSKe7c8Rege+jhO/gs8e8T9TyxV8nP2/Jwuy3ristw0PuYgP0ua0GSyRkvUGPK+g4sj8g0SH+Ebn4+b9D4HGlyXW2T+D7QAZ30uEVJsk0fFxPlkqyQ86Ev2BtwRJxtdlf3j+VNHZ/6NS/7cyOu9P9NKIfzrJMH4chfUKHvYzplGdruD9vD+xSCDFy4lCratS6Hrd7M/J0fzvRjY+8Dx/Gn4+r7TbT8QfEXcjntevFc/z4Yrf7T/i6zjxG/E8/yz4bB57z35mP078Rny4b/6Zk6sVz9nViuf0asW3TTyCPxcnhfvPHC/F0/p4RNOBDyNCr8X7nE9KpMzZjb8eeM4H3Pjrgd/5f3KIZ/VoyYelSKH+APm/8PrupMF58fNVzIfVDQJ+rb4kxDfinzqy64HXUWFvq4/VSyL+bPV39rcaht64gm+zv9UoSvYnDLZ54NOIoGt8KSOe1a+E/L9yvZAHmzrwhe5PQf5czX+I/1t2nf25mvYk52VyK8wO2jjhM70FGaJxxqERKZkZUMqUUVw3P6L0skFFktt4EjLNBYrZDBiLsDDw87G1SGn3SUWdGTAeZ46H22qOygLHPCmjQWaRU1GaNF6ajJmD1ms8Nxo1L7DoQ05fNshjT84MGHuKDuVP4/Sjs9WKBpUZmC+BQaMCIi0ZtfGIS3EE/JkBc4209DDMgDWnjDJhTLdB+y8b+OE5R1fCOZomjTVBndpaJFQqW4s8mOjNFuZud67Dsqm/z6Lda3FiXDceh1EubWjASLNxrhLQgPmgkShMHryN0FkReLnpLpJtTjTnxkjtvEXRgCl9IyJ1yTaslBqz8Eu2UbJLRi3ykjGZGDSuUGDRnD0YWcCDi6PgXzYoUmfv66WOZMxakcBZ9VV2Dm30P84YBGNYxheQMpVB8q8ZVOBMifY0bcYBDDhJbIqUo/KushEMBZrLY9oMIDcVXibMAFLTRgiYAXRyy9H7vmZQGxow6dY9Z170RiuZATRbLY8wsWEGQDkK78Z1VgXyjbf321LfLXkG/h8KTMkKOFt0HHr8TEGzDqGFPKSZzJNx522ze1tVootO0uaDy7xpY2kLLpSstnrmfBkvrDJvO5kBZL7OENi2WupdGjeM5HcqOcdDVnFslwqW3dRo66bXm9n50kZrVWxmbJpnZpCgu5io+u5kdT7pxK9PrIxjv5PXBzOABosR2soOrmHHJG3ioSG5jJtU2XDRkTMBMwByEnmdPmNsZ21qqnovWPBUdski0NZ/X8bsf5EL5Qsbde9RhE1tb+iwgbe7Ou+E+6DM02vDGAqbTNOwoxm4du8xBFcwfhelQMoCp0xmADwxbNjDkVeGgeds2gxA0W2uIdfU5DNnQBXzsecXYV2pw00w73D0fAxXqYEzoILburmbNgPcpU0uK1gX/aamZGwcba7jzSDNu6Rc7JsBdJqUNyxOCuPMgDW/zABqu258KYnLaMB008qxlOdjMwDKpFsmClxXudBaqase23CNTcPF/+bhSO9Rwn+I/AnRojmUX4V0VQNvR/jdYVNsxusm4twFA6rBF3Wpnnb8TtLwMOA1zqQhVCDl7ea6NCHV0b7o2kdQfkVsSg/uIHhIm9DzHvCs6JoKq/M5V0qlTYTBndSmNROx68qVqEmwvODZkysTojgf1vk5CbATnql7k1NwYFwumZpCcU8TZNdGoLzplWyO2Ewr9HWfCR1488D7Vml538d1fUp4x8QpWPK43kSv3ONC2XgXIC4lLdJuZlxyNb/iiw7jhRPC/gIHCCH1B6O8wDg99QcjsBVfe7LGTYgrnnFs47sN8cx/+ospYGr8VkbX8Vk/z8guFGP+ZMDSH3TneAnwSytZ6RVrf8MJJWNcMl/GZ/QHpc0Rn/DNA3/y1t/Uzf7Jn7T044+AzwyvyDEdfSLR3zx4wDMO2xlrQTy/js04H1ZPjU2WBHh282ncsOB+MrVlxK3gfCg+Yjthi4c3GBt8QI28wXus1xu8Yj7Z4vWu+TjUZRu1i0JxO/zmpb/9cPqawJen5+f3bxmc/x2/VmAfvX8lIXz8Dw==);fillColor=none;" parent="1" vertex="1">
                    <mxGeometry x="324.1538461538462" y="306.3823076923076" width="424.6153846153846" height="284.6153846153846" as="geometry"/>
                </mxCell>
                <mxCell id="65" value="" style="shape=stencil(lVzbch23EfwavqJwB+ZZcf7DVZYiVhTJJcux/fcehMHysAdsLN4osftwFxjMpWdwntKH3z7//OvHp+h/+/H9278//vH8y4/PT+kfTzE+f/388fvzD/3pKf30lD58+vb947++f/v96y8v//7154EcP/3n23/HJ/z5wuvNFT9Y0f/18j/JNfnff/zzBf/l+esjvrpWz/ApvsFn5xm+4PNkFyPFh4D4SvDZpQ74xPDJ1Qz4XAg+OsHnLxzv8XkoPrhQT/DepXSAb2LXn+K7KyfP35qr7QRfXS0n+GL3i+Kzq7g+bH+bmjvaG7OfFufxuGefLbiO6xkaxfu365OcdIL38zjdO79VXBbAV0/w3TV8nhwo3gfAs/Nem4tv10cPXCb46koGfCX7W4vrAfCJrL/ifQN8IOtf1bze2ptuOFv/hPYTXGXrmVzIgP+/A1jjI573MD9gjdfHrYD3HB/frqd3na2/d7kDvpLzUsS1DPhM9qt0JxHwieyX4r0APjJ8m8f7FR/I/paK9uBpfCxlbv8DnpzHkl3D9dzgPa4nxSeXjp5H7a2d4NXejp5Hzdef4P083vfwWTBebPAd84EtPqD9UHxb2A/D1+m+b+KLa0frk6c7vo0PeB4pXsMDnkeKjy4frWfA/GGD9xgvtnh/sp5JXDp5ntTP9je1M/+QqpNyhvcn9plMPr/B5+leb+LVfo7WX8P/0fuGs/OY/Jk/j3K2X7Gf7Zfij/YrtrP9ihXzPR7vNP3t6B9Y/B3pKeJZPqDpmtkvlm9ouhMRLySfGeEf871I8rEguP7BFZIPh4b5jAZMsv6Kh/h4FaBrfJ3lzSs+kvUMBePj5YDX+DzLlVd8I+up+IT5PMv/g9oD1i+Brb/6hwx4Vr+EiOfx+oPv4cEe0iz41vhg62tWDyren9SzQfMfrE8rWU9xHT9eiHkKqi3FJWKdHQ97cYWJRejLtXhjtTKG6uoiK/Uxk6/TtNeVCzqeNj3dOvF00gBeWF2BZtlpmZaxquvz3ddRCJM8oU4zGR/lqVOLaGOKZyKFyfnVqhs75GhlesqY3QSMQXrqE7EEjzWmeqFAltNjzqn4RtbTo6ahXrSQ9fRTYrjwdWbF7+Chhh1RgKznFcIf8MI/H/CdOmWLFyqCGPwIunR9EB/mabuJT/TsWnyeKtxNfKFJ0grPkgyLrzQJsPhGRTGL7zQoWrzQoGXwmhV7ElVWeOb4LT6e7W9KZ+dFqxKWpFp8cfnofSsVtS2+0aTE4rtrJ+dLq9Sj9dcquJ28r1bl5ejzI02aLT7ReGfxGl9P7CeXs/3KlcYvi29T5b6J71NlvYmXWSXdwxcuqlo8F6ktnovsFn9lLLfxLD+xeJ4FW7xWwaQosnjNRU/8eemH68nzPYOven5PnqeGs3hdd/kY4nf5FeLrmX3Ww/ynypl/GF28E/tpWlSfnPeWZtfmJv4wP2n1LD4q/ijfa4f5STvMT9o2PxHE8/MO+Xzf5SdQL/QwC+F38KBR97ixf9CI+qWSvVMfgabaM/UPYf72wpc59XGvvuuVilARNUbFd2JvcYoMF75Re4g4k6B4JsqY+rd36q80u/CIZ/ZjyvF+deHfqfah5yuexhejDiieSRt5Wu+FD7ypiTMniq+sKTujyYWPVE+o2CNTfGNNcZRmJFHRuU1v8IBn9m+EJcUzEbPjeZdM8xPB8yh8KCpc5dMDgaqYV1P+gcDGPELAI6MENkfyqsg8EKgGlGYIvQiFK9UZOylK2EjV0JpVAtVKG/aKpVCxNHR0dFJpoB/DCAEJiXmugPKz8NJhyN8VCczXDWcB79DmR6wJBdUyJTDvqMcTRoaUwNxRNDNk0qg/HQcOjK9TAWDo1hEJTPFLHvVZJTClO5k5PuE1WTKDgkpgTjUlzHKUwLJAJYh5aWGEbHZaqA6WCg5/KCEwQsXIqYRITlxqON62I3Scn9sTYCBLrhb9miDGL/FqOvsp/j4QmBycw3RbDwSW39mhCCUwQSanxcaxhsIQSDoShBEKxofg95Msh4yGecaW0TFz2DLMfNCOUfzUhm4zTL69ZSw6MKdzXVtGxs74llHm4b/NqDg9c4PRD9+8zaNwm2HyuS3DZHQ3GHK2uvUaZLjNCOhttwzTzb7BkMOnshOwO4bJBLeMMvWU2wwzF7FlmOxxy+imr7ljyOk5bzbj5I66mQGYTShoEU/5Jti0hId8E86UgIk8j7B26H+Th7RiMn+eSw1BzCRfrL/fqikVOtV8WzMhuVHRqHWz0zwvb2Z0TEuFxt5BcPZwU710b0yjzPmS9wioFPAar5txPOGtmx4XtT/rZSvBFv+RrFJPGO8l0pH+nlFOlEDbwb2Y8j/Q+QAlYPnPBaFejWImtFToDQuqjaQ1FDj4C1wz01+DXrAR5fQBPKiujZp3N4l8b1SGETPr23nfVkzmP3aGrJISwPMpgSlnQ7gDaZpLu0qA8l/tl7l7CTjD1XnzXK0f6lQ9UqwSHuIgvAOXy5VQjL7OJIwhJ8JLe2qtSoDSuQl1ZOojQNLetCDEzL1vehyvkuVF4E0UJUC+uOnSvIqcDwS60wlj3IirbKcTJr0jcrOdzqjMbzpfYq4ftESFngUhUjezIASq0C0IntvSisCUUkuoQvs1C0KfR+ouodGJpCWBSUkLAp+BWxAK1W2Gxg7joplKemI0Dy12mLQq5q6MVmDsMqmYy9FaFrLbdENufntEN5MBYq4HjQKamUbDFK7wEV8xIsxm2GLkwfAX+BXOkWm/dQIl0HEF6ZjCFT9vub9HwEvevAYaBJiy7rRjK4Jp6BCv2MYJ1qObGaKhKcJFad79EKNs5cy9hqCQkhMd2xmFJBAiDyhXqXoRrut/S8JDNXwxPK38FowktDBbMXgmumJcX8twm1H5iPSCUXgDbsmgd1cWjM3gwIKRaCt3xYi0GlozTncw0IGbFUMrqLPVjXyoZM3wZ6s7rkwc/o3Gm6gLRqUhZsXgaeCKkWnsXjESDUsrRqTXQ1aMQOWOFcPTgL9gBD5atmJ0eqPNOtEx7c/CpXHTSqBFp+2JVDrPa4OZEpiKaePr5gaF2MZOoSMzYu5lj3kDFsyaEaE36WNDPSIkfreqouIxZiZYuCxGe0/0y0hsvhk2GW3Bbw8IkQYymzOPC3LspU1WPkZReFmLjZPAqyNT1gZPp/NtpS10+seW8sKNO+F1pU0Ob9QLfrVMIorblXYArGDD79FZCalQnW2IWgL4zNbHY/Om0NKxC7YEM02tu7mCv/nKpe1XaukPr9/H9en5y5eXr/N6/D1+f5f+18t3f6Wf/gY=);fillColor=none;" parent="1" vertex="1">
                    <mxGeometry x="314.9192307692307" y="652.3038461538463" width="209.23076923076923" height="203.07692307692307" as="geometry"/>
                </mxCell>
                <mxCell id="66" value="" style="shape=stencil(lVvZchw3DPwavbKGN/HsOP/hKtuxKo7lkp3r74ONzPVOA2ou33SgdzkYEGg0yIf85tund18/PKTj2/fnp98//P34/vunh/zLQ0qPXz59eH78rj895LcP+c3Hp+cPvz0//fnl/cvvX99dLC8//fH01+UT/nnBxRokX1Dp+PflLzVE+f8Pv77Yf378cmvfQ4wn+xKkEPsRUgb7yj5fQi5gfyRqL+f15DCO1+3TYe1zJvYxyHGyT2F0Yp9CF7CvbD05tA72B/HnxX3tZB/nB/j2NZQC9pmtp013/LRn/k89tHqyP0Jn65dQEtj/eCDXPsdQM9hn8rxZ/Yn2LJ5zDR3tD2bfwzD2xJ9ZcH9x+6Lxhv6h9jmUvmNfMP4X9m2+/vv8U3rIGA/M/2Vg/B8hjdft63W598VDjRjPRygk3mqy8czis+YgA+x/fIBvX6f77tsvtU333Wnfw4HrWdhL27EfYezs9yp2fzH7pu7DeKP2cabXO+1TyDv+bFoedvzZSij4+ULqS6uhndcfZ4H17VsYEexZPm8jRMz/leyXJphP4nzhrn039TSFSJ63J8wPvD52pz6y+ttLGGf/53CQ/dsb8pkcEnm/XfnPAfaV1Ee1F1wP4yd9YD5R/sOeV6Y7bvgVWf/Q8D37v9L8P5ReFLBn+XCk6Y5p30Jin5+tPeOTo2B+UAJC6ssw9X1Qvjcafr5Q/4+O+UcTHomHMdA+8gI2BBNK5IxMDsxYkVNE0YxzDomYQmLfEE0OUtZLirakUGBJnHWLbsKKALZtFAC0KZaQSJxKMXmuTOboAyoSoXilUq8BKjw0b63EUK3I95oCKjxD46Gh5CAigFUDMWxO+z8aGh3bHwWwfC1an+ChlREytw5sELUFLCRjKAA6pgXFVEA/vzitgSyHiSAnXTRxCoCmWAHC3rQ+IlTNPOvcawB86EXwiamzbW7a1wDopcWbFqzMmirZFo2H4fqZk2sPwVOZh8ihk5ftISqNJw/BfesheJnzEINmTA8hNKE5iMLJrYfgdNJD8NriITLNIB6i0BTiIbbfeWmU2PsIKq05iL7tq0Hpq4fY3rWVSwAegjdBHoJnXB/BUq6H4DnXQ5TJlO5GVNpeeogW+uZzbOeSup1LGpeVPAQvsh6Ct44egrNID1Gp3OUhGm3IPUQPZS9KGm9iPISEuFWcGy8Gtvx3LpRZgtGXrAooTOe1w5KkzgPE0rDOxQJL9DonC5ZK9jIZ9Z1ktfP+XMx8pfMMogwdBhp92QMUWJJ2BSw0mvmGMTvM1wDQZXTedGtrNQ4ELHqxCCoAZ5K2PRyR02HTgI5FE21a3LFsovv5oUcOhXWsCfv6sWgaovmGRbQa5UABTP2QI/RzAzo4j1JA6ghg4T3EfAPnXQrAb+D7YYz5iDcAKllp9J830OAbSP/dIgKoyNVn2roCBk1kumJQwRXAZE9HRuPEUQFHRwALPo2cBEviJWuYSZ8CqPSZcHQxeNbQLT/ObhWuHGhSgWGl8GmBJsZ6FjN0S2XiJc3VUIGEE18tUKCvKIDFktZ9kK2EK9zKkECgFJ41lBrK+T0ITwLKcPN5PwgXlbV96OfguyhfxEvFyFbCOyltGDOExqDJuJhUKVel3wVkIxQr+2BuzW068QbAFM1cQo0IYO1KTjgrFL6B7PD+hpn6iAPHoytEMltoiWg4klkiaqh1D1GMrLlCmIMjS0REYrZ4HRfdsyCA9qeCw0Ph041opo2LGLzIyeYZqBTTcJQgvEzEioRAFs1swRMbi60d8yz/dyYPBRwVAVS9SPMR70yAMWJ9X6TYeGB9XyRxMalgQUZDhNeW6DmwgWNB4UOsgcckhE/J+qzLN5WajeGuLfoNd2A7wRzDGLylaThmXfArUxIHV99rkI72bE5fMXMPLlmbYy1KAAerh3jMZvD5RJnxftNpMLKXpyh2Z++TQ05oz3pW5ZLwfhfn/LBKDS5mJLOehSRq1sPjOWJF64tEPZvZm56eZdED19M7lVu1HTciA4vPA481di67HWb9lfrHCGgL4cba8wm3tedygbXn6pm15yL8rmDoSZJsv3ii59bztkYbI0+4ZXKktedSvWfP8rknPW/FQ+P10ZPPWT7x7Fk+8QT9rf1SeTPujRiYkuoNMVi98+wZxfLGKlv7q27mk8rrlzd8YkNNb7zFOKg3cmMi1u6IzhsCMgLqjRlZH+ANMrf8sxiVevZb8VNW9cgOlLfyVdnMV2UzX5XNfFU289XiIIBnvxVvZTPeMldXvOMVrN/xDnCwIZ93RGSr3i0OoVj7slffMx+NeQdvtvZL3ny/eZPPpM33m3j/Ze0380nazCdpM58szukeeOw58dOMhj+nVfzAtYvE9QHD5xOXqQ/sX9KqfoEivDjTF40/+b0R0x/FVT+F17I4/4nYHy3OVZp+MPJ40+7DnAyl98SM6srjLaH/I69fGY/ZRx5v1+i62nO+ZPSByPNbMbo07/cLXnOLPD6LWQ8fBBm9JR5UbzF6Tlzcs0K9iMtdzQy+6CExq47xSxFm0sfP8M/Ivfa+VHoYKGV2ymTEXkBIxDMXP8PJmsWpPpyONSp8RnMBanH+yGjJ/My42oO6zYW9n/vupz1NnAWVzMUF5Drz2JXp8RmGueC8OOu5vBCtP/y8Tf3x8fPnl8vYt//H29f6p5eb2/ntfw==);fillColor=none;" parent="1" vertex="1">
                    <mxGeometry x="559.5346153846152" y="639.9961538461539" width="173.84615384615384" height="207.69230769230768" as="geometry"/>
                </mxCell>
                <mxCell id="68" value="" style="shape=stencil(lVvZchw3DPwavbJ4H8+O8x+ushypolguWbn+PmC2ONppzDSHb/K6e3eWBIFugPsQPv18+vLj8cHbn+9vr78//v389f3pIfzy4P3z96fHt+d3+eshfH4In769vj3+9vb65/evt3//+NKR/a8/Xv/q7/DPjRdNjZ3k7b+3F7JJ/v8Xfr3BX56/7+A27ODFZHcO96bs372aYs/hzrS8gztrbGP44vb47R1O8A7w8vXJ41uT7R5fjS0M7/d4+cRI8RbwabxyEV9NCgv44McTXsSnsQIX8cU0up6Ib5P1B3x0Jqw8T/Qmk3jQ+GAqiTeNT8bHFXxei4cox2vpeera+idr3MrzJ1n/lfVM3qS6gpf1X9nfFNf2KyXTlp6nrJ33VI1LDB8B3ybxA/knWxPoea/7/JYl/5B4cMYCXs4LeR5nPOCjceR5nEmAl/Wn+R+fv9DzK9ne7/HNJLJf3tg9vvD87I0DfBjf6AQfAJ9MIuspqw34YiKJn6CeX847ef8womUrv3LeyXoGUwAvO06eJxoPeF5flNiogZ6XbfXu8I3sVx5Pu+GjyeT95XTv9UZN9HwVUwGfaf4UtVMQX4m6aibXPb6YxM6LHel1I0gCIglO9FFsSCjkiZzHlFUlZZEtcBJzDgmsxosEA1HWJMmRTXMJT4EQaFaRpLMP0+ZoWXKyS0CQuGZ5qKDOFQIrZKIj8z5SWzCRPZIktn3otTiW4Ti1SK1RBKa9JZmGfbA2Lm56dqxIYKdNCA0IeRzAY4Kc9oYEmq+TcRYJlSxrzxgQfMV4RiiY4huXaB8K/Y7APIokgQaxVEeaPU7a4oISEliVCgHTkhBY2e8uoCGhkFUKW9q6IzBhKj4g+hVCNwJhibBVmqsEOS55iZCHVrxKkFiC89CMZeVW9rUhgaX7pASqEALJGkk5aiFEEq0i2GNAQiLnIW1J5Y5QSHgnVaSFUNkjqarrrKW2uqvqusbw6BSmjICZZsqIeCamjLTMyHiMpgwJ2rjGqKOcX2Y01HEzRtl07WWGw9M6Zcier0WJuAXX1hiiqBcZaXRELh6PklGgTQ5g0SWPH3ExJZibedYp7YDAEqHYGEwivCCJj7Eq+weiJIRQgcDLtjgfLBdSBNl3CCYXJDAzJF4mKfnEunNiZjSB2TNxJ1hfuKKrus5HatDEbUSHhEiCr2phEIbcObZQEhqKwHo44gWsEvuBhLcQirIThdT5/n4RCZZ8aSGgBOSWSL4i2AlZt8y+dMScLDvDskbf14wESzSjRA4YFgkWJmObkk8SjkyK9+gHAnfv/XyBW47DL5wR0F5vA40zQgWC47FUsaZILixsHyqWFMm2rAXXzQMQMu3h9sQIhEjT/QHBD/98leBoXtKESZ/vgFBGD+AqQZwm22lNkBPCjmjFzosoQtbr654MCI43j+rohd91i1kV7UV2T0hbsJwRIJZSpv3ZLhRUA55mvjZ6FBsh0AmXEJoaObC8dKenNoYdbberjMhN0RGDy40jBm9EHDF4dT9ipNF7u8zgXacjhqcn74ixaa/LDNnBtc/oDQeWcVRYBd5Y7aIbCJlGlRBgthPSSO0XD18Io8Se5QPonvVOEU/kIP+C5adVVS9f+bKqguoz3Tkh4CdErlPyKAwbISzKDu+oqtbCxlt6irR0cpVOLbskBgIfg4n8a+CXJ9VrKz0bIXGBqRSpi3QMoDWvm5Q7paqdH32cM4JXBHZZRDQ0fgKfjgoBxn/OmsrcjTIrztJCIRo6Y1OIJgHR0JBm2hiBnjm6hnhq6JLquI/W2JknxZY+nRl8zO8+8EyBi95G28H9pVcTPSpFRZ5DV5hfUNKNB47XnY0JXk0LKs3xpYzp3Qc+kngQ7d8QzxSf4GE4xy846G5UpXqhW4s9vtB5TQkoigs1ZEWNnPh9taJmWoUOnIoamm3t0bM+JRSPQjWb+JyMeNbMyGquyAV6v1+B1//YwD9v5XoTz2Okf9aRVnjW7hETBTciEr2wkAPeMInUPmc1zo607mWHNi/QCxfiuGIFPJsDp4aCKNC+jZ5tBCq4UsH8GWi3QPDQR/dUi4v/AyHh6XUCsX8F8WwS3+1iBDxTESlivvWj232MDxifkgDY+vthwS/j7RJe3bCa4NWNMo6PynVM8HU4hov4gvl2ikd9T927WFwHUxt69aPfzwQpTUVlVH1RR/1J1EJ6tHmO8R7zrRvt6mO8w5solnaZompm896GGGeY7Vh6YU1sc0Y8k9Bhm4B/4JltEDwYdX5BNRSNZ9MyfZNhgo8YbxO8H73Vi3g7fNo1vN+avRfxCc/7BB+wyTDBqykqx7uGc7gJvqDenuATerwJPuIwdIJXt9smeI/6doJ3a/HZDSni2Xnpv6eogKc2fvzvteNesfnCs4+6TumogS86l7PcnFEK81KUMTInSgavpgZ6QzCNbbmmIyO2wSOdMKp7uFw1qx/x8Fvx058IyR8fPy/69vzycvt10v3/48+R5KXbT5nC5/8A);fillColor=none;" parent="1" vertex="1">
                    <mxGeometry x="322.6115384615383" y="879.9961538461539" width="190.76923076923077" height="141.53846153846155" as="geometry"/>
                </mxCell>
                <mxCell id="73" style="edgeStyle=none;html=1;entryX=0.226;entryY=0.118;entryDx=0;entryDy=0;entryPerimeter=0;" parent="1" target="64" edge="1">
                    <mxGeometry relative="1" as="geometry">
                        <mxPoint x="340" y="130" as="sourcePoint"/>
                    </mxGeometry>
                </mxCell>
                <mxCell id="74" style="edgeStyle=none;html=1;entryX=0.72;entryY=0.118;entryDx=0;entryDy=0;entryPerimeter=0;" parent="1" target="64" edge="1">
                    <mxGeometry relative="1" as="geometry">
                        <mxPoint x="340" y="110" as="sourcePoint"/>
                    </mxGeometry>
                </mxCell>
                <mxCell id="69" value="Evaluator" style="shape=umlActor;verticalLabelPosition=bottom;verticalAlign=top;html=1;" parent="1" vertex="1">
                    <mxGeometry x="307.23" y="80" width="30" height="60" as="geometry"/>
                </mxCell>
                <mxCell id="72" style="edgeStyle=none;html=1;" parent="1" edge="1">
                    <mxGeometry relative="1" as="geometry">
                        <mxPoint x="310" y="110" as="sourcePoint"/>
                        <mxPoint x="189.99569475529563" y="342.6876923076922" as="targetPoint"/>
                    </mxGeometry>
                </mxCell>
                <mxCell id="76" style="edgeStyle=none;html=1;entryX=0.072;entryY=0.58;entryDx=0;entryDy=0;entryPerimeter=0;" parent="1" target="65" edge="1">
                    <mxGeometry relative="1" as="geometry">
                        <mxPoint x="126" y="831" as="sourcePoint"/>
                    </mxGeometry>
                </mxCell>
                <mxCell id="77" style="edgeStyle=none;html=1;entryX=0.091;entryY=0.424;entryDx=0;entryDy=0;entryPerimeter=0;" parent="1" target="68" edge="1">
                    <mxGeometry relative="1" as="geometry">
                        <mxPoint x="132" y="848" as="sourcePoint"/>
                    </mxGeometry>
                </mxCell>
                <mxCell id="78" style="edgeStyle=orthogonalEdgeStyle;html=1;entryX=0.29;entryY=0.77;entryDx=0;entryDy=0;entryPerimeter=0;curved=1;" parent="1" target="66" edge="1">
                    <mxGeometry relative="1" as="geometry">
                        <mxPoint x="128" y="905" as="sourcePoint"/>
                        <Array as="points">
                            <mxPoint x="130" y="1070"/>
                            <mxPoint x="610" y="1070"/>
                        </Array>
                    </mxGeometry>
                </mxCell>
                <mxCell id="80" style="html=1;" parent="1" edge="1">
                    <mxGeometry relative="1" as="geometry">
                        <mxPoint x="118" y="821" as="sourcePoint"/>
                        <mxPoint x="190" y="525" as="targetPoint"/>
                    </mxGeometry>
                </mxCell>
                <mxCell id="75" value="Admin" style="shape=umlActor;verticalLabelPosition=bottom;verticalAlign=top;html=1;" parent="1" vertex="1">
                    <mxGeometry x="100" y="826.15" width="30" height="60" as="geometry"/>
                </mxCell>
            </root>
        </mxGraphModel>
    </diagram>
</mxfile>